<svg xmlns="http://www.w3.org/2000/svg" width="50" height="39.8" viewBox="0 0 50 39.8">
  <defs>
    <style>
      .cls-1 {
        fill: #1d63ed;
      }
    </style>
  </defs>
  <path class="cls-1"
    d="M49.19,16.54C48,15.72,44.74,15.37,42.4,16a8.09,8.09,0,0,0-3.53-6l-.82-.55-.54.82A9.4,9.4,0,0,0,36.15,16a6.85,6.85,0,0,0,1.36,3.55c-3,1.77-5.86,1.37-18.3,1.37H0c0,2.81.4,8.21,3.84,12.61a14.89,14.89,0,0,0,1.24,1.41c2.8,2.8,7,4.85,13.33,4.86C28,39.8,36.29,34.6,41.31,22c1.65,0,6,.3,8.15-3.82,0-.07.54-1.1.54-1.1l-.81-.54ZM12.54,13.65H7.14v5.4h5.4Zm7,0h-5.4v5.4h5.4Zm7,0H21.1v5.4h5.4v-5.4Zm7,0H28.07v5.4h5.41Zm-27.92,0H.16v5.4h5.4v-5.4Zm7-6.83H7.14v5.4h5.4V6.82Zm7,0h-5.4v5.4h5.4V6.82Zm7,0H21.1v5.4h5.4V6.82ZM26.5,0H21.1V5.4h5.4Z" />
</svg>