<svg xmlns="http://www.w3.org/2000/svg" width="48.57" height="50"
  viewBox="0 0 48.57 50">
  <defs>
    <style>
      .cls-1 {
        fill: #ff2d20;
      }
    </style>
  </defs>
  <path class="cls-1"
    d="M48.54,11.31a.76.76,0,0,1,0,.21V22.25a.79.79,0,0,1-.39.68l-9,5.18V38.39a.79.79,0,0,1-.39.68L20,49.9l-.13.05-.06,0a.68.68,0,0,1-.4,0l-.06,0-.13-.05L.39,39.07A.79.79,0,0,1,0,38.39V6.2A.76.76,0,0,1,0,6s0,0,0-.07L.1,5.8l.06-.07.07-.09.08-.06.08-.06h0L9.79.1a.83.83,0,0,1,.78,0L20,5.52h0l.08.06.08.06.07.09.05.07a.31.31,0,0,1,0,.12l0,.07a.76.76,0,0,1,0,.21V26.31L28.2,21.8V11.51a.75.75,0,0,1,0-.2l0-.07a.61.61,0,0,1,0-.12l.05-.07.07-.09.08-.06.08-.06h0L38,5.42a.85.85,0,0,1,.79,0l9.4,5.42.09.06.07.06.07.09.05.07a.31.31,0,0,1,0,.12s0,0,0,.07ZM47,21.8V12.87l-3.29,1.89-4.54,2.62v8.93L47,21.8ZM37.6,37.94V29l-4.47,2.55L20.37,38.85v9ZM1.57,7.55V37.94L18.8,47.86v-9l-9-5.1h0a.27.27,0,0,1-.08-.07l-.08,0h0a.47.47,0,0,1-.06-.09l-.06-.07h0l0-.09,0-.09h0s0-.08,0-.12,0-.06,0-.09v-21L4.86,9.44,1.57,7.55Zm8.61-5.86L2.35,6.2l7.83,4.5L18,6.19l-7.83-4.5Zm4.08,28.13,4.54-2.61V7.55L15.51,9.44,11,12.06V31.72ZM38.39,7l-7.84,4.51L38.39,16l7.83-4.51ZM37.6,17.38l-4.54-2.62-3.29-1.89V21.8l4.54,2.61,3.29,1.9Zm-18,20.11,11.49-6.55,5.74-3.28L29,23.15l-9,5.19-8.22,4.73Z" />
</svg>