<svg xmlns="http://www.w3.org/2000/svg" width="50" height="44.53"
  viewBox="0 0 50 44.53">
  <defs>
    <style>
      .cls-1 {
        fill: #61dafb;
      }
    </style>
  </defs>
  <path class="cls-1"
    d="M50,22.27c0-3.31-4.15-6.45-10.51-8.4C41,7.39,40.31,2.23,37.43.58A4.41,4.41,0,0,0,35.15,0V2.28a2.26,2.26,0,0,1,1.16.27c1.39.79,2,3.82,1.52,7.71a29.08,29.08,0,0,1-.52,3,48.64,48.64,0,0,0-6.47-1.11,49.64,49.64,0,0,0-4.24-5.1C29.92,4,33,2.27,35.16,2.27V0C32.36,0,28.69,2,25,5.46,21.27,2,17.6,0,14.8,0V2.31C16.91,2.31,20,4,23.36,7.06a48.09,48.09,0,0,0-4.21,5.09,46.93,46.93,0,0,0-6.48,1.12,28.5,28.5,0,0,1-.53-3c-.48-3.89.11-6.92,1.49-7.72a2.28,2.28,0,0,1,1.17-.27V.05a4.55,4.55,0,0,0-2.31.57c-2.86,1.65-3.5,6.8-2,13.26C4.13,15.84,0,19,0,22.27s4.15,6.45,10.51,8.4C9,37.15,9.69,42.31,12.57,44a4.52,4.52,0,0,0,2.29.57c2.8,0,6.47-2,10.18-5.47,3.71,3.45,7.38,5.43,10.18,5.43a4.65,4.65,0,0,0,2.31-.57c2.86-1.66,3.5-6.8,2-13.26C45.87,28.71,50,25.57,50,22.27Zm-13.27-6.8c-.38,1.32-.85,2.67-1.38,4-.41-.82-.85-1.63-1.33-2.45s-1-1.61-1.47-2.38c1.45.21,2.85.47,4.18.8ZM32.06,26.32c-.79,1.38-1.61,2.69-2.45,3.9-1.52.13-3.06.2-4.61.2s-3.08-.07-4.59-.19C19.57,29,18.74,27.72,18,26.36s-1.48-2.7-2.12-4.06c.63-1.37,1.34-2.73,2.11-4.07s1.61-2.68,2.45-3.89c1.52-.13,3.06-.2,4.61-.2s3.08.07,4.59.19c.84,1.21,1.67,2.51,2.46,3.87s1.48,2.69,2.12,4.06c-.64,1.36-1.34,2.73-2.11,4.06ZM35.35,25a41.77,41.77,0,0,1,1.41,4.06c-1.33.32-2.74.6-4.2.81.5-.78,1-1.59,1.47-2.41s.91-1.64,1.32-2.46ZM25,35.87a37.45,37.45,0,0,1-2.83-3.26c.91,0,1.85.07,2.8.07s1.91,0,2.83-.07A35.67,35.67,0,0,1,25,35.87Zm-7.58-6c-1.45-.21-2.85-.48-4.18-.8.38-1.32.85-2.67,1.38-4,.41.82.85,1.63,1.33,2.45S16.94,29.1,17.44,29.87ZM25,8.66a40.67,40.67,0,0,1,2.83,3.26c-.91,0-1.85-.07-2.8-.07s-1.91,0-2.83.07A38.58,38.58,0,0,1,25,8.66Zm-7.54,6c-.5.78-1,1.59-1.47,2.41s-.91,1.63-1.32,2.45a41.77,41.77,0,0,1-1.41-4.06c1.33-.32,2.74-.59,4.2-.8ZM8.2,27.43c-3.6-1.54-5.94-3.56-5.94-5.16S4.6,18.64,8.2,17.11c.88-.38,1.84-.71,2.83-1a48.34,48.34,0,0,0,2.29,6.21,47.68,47.68,0,0,0-2.26,6.18c-1-.32-2-.67-2.86-1ZM13.69,42c-1.39-.8-2-3.82-1.52-7.72a29.38,29.38,0,0,1,.52-3,50.31,50.31,0,0,0,6.47,1.11,49.48,49.48,0,0,0,4.24,5.09c-3.32,3.09-6.44,4.78-8.56,4.78A2.44,2.44,0,0,1,13.69,42Zm24.17-7.77c.48,3.9-.11,6.92-1.49,7.73a2.28,2.28,0,0,1-1.17.26c-2.11,0-5.24-1.68-8.56-4.75a47.94,47.94,0,0,0,4.21-5.08,48.48,48.48,0,0,0,6.48-1.12A26.89,26.89,0,0,1,37.86,34.22Zm3.93-6.79c-.88.37-1.84.71-2.83,1a48.78,48.78,0,0,0-2.29-6.2,47.68,47.68,0,0,0,2.26-6.18c1,.32,2,.66,2.87,1,3.6,1.54,5.94,3.56,5.94,5.16s-2.35,3.63-6,5.16Z" />
  <circle class="cls-1" cx="24.99" cy="22.27" r="4.66" />
</svg>