<svg xmlns="http://www.w3.org/2000/svg" xmlns:xlink="http://www.w3.org/1999/xlink"
  width="40.55" height="50" viewBox="0 0 40.55 50">
  <defs>
    <style>
      .cls-1,
      .cls-4 {
        fill: #fff;
      }

      .cls-1 {
        fill-rule: evenodd;
      }

      .cls-2 {
        fill: #ff4785;
      }

      .cls-3 {
        mask: url(#mask);
      }
    </style>
    <mask id="mask" x="0" y="0" width="40.55" height="50" maskUnits="userSpaceOnUse">
      <g id="mask-2">
        <path id="path-1" class="cls-1"
          d="M1.57,46.07,0,4.8A2.52,2.52,0,0,1,2.38,2.2L37.85,0a2.53,2.53,0,0,1,2.69,2.36.76.76,0,0,1,0,.15v45A2.53,2.53,0,0,1,38,50h-.12L4,48.49A2.53,2.53,0,0,1,1.57,46.07Z" />
      </g>
    </mask>
  </defs>
  <g id="icon-storybook-default">
    <g id="icon">
      <path id="Combined-Shape" class="cls-2"
        d="M40.54,2.36a.76.76,0,0,1,0,.15v45A2.53,2.53,0,0,1,38,50h-.12L4,48.49a2.53,2.53,0,0,1-2.42-2.42L0,4.8A2.52,2.52,0,0,1,2.38,2.2L30.18.48l-.24,5.67a.37.37,0,0,0,0,.18l0,.06a.38.38,0,0,0,.53.07h0l2.22-1.67,1.88,1.46a.38.38,0,0,0,.25.09A.38.38,0,0,0,35.26,6h0L35.05.18,37.85,0A2.53,2.53,0,0,1,40.54,2.36Z" />
      <g class="cls-3">
        <path id="S" class="cls-4"
          d="M23.71,18.85c0,1,6.66.5,7.55-.18C31.26,12,27.65,8.51,21,8.51s-10.32,3.55-10.32,8.88c0,9.29,12.66,9.47,12.66,14.53a2,2,0,0,1-2.25,2.27c-2,0-2.81-1-2.72-4.49,0-.75-7.69-1-7.92,0-.6,8.4,4.69,10.82,10.74,10.82,5.86,0,10.45-3.09,10.45-8.69,0-9.95-12.84-9.68-12.84-14.61A2.11,2.11,0,0,1,21.23,15C22.16,15,23.85,15.11,23.71,18.85Z" />
      </g>
      <g class="cls-3">
        <path id="bookmark" class="cls-4"
          d="M29.94,6.15,30.18.48l4.87-.3L35.26,6a.38.38,0,0,1-.36.39.38.38,0,0,1-.25-.09L32.77,4.79,30.55,6.46A.38.38,0,0,1,30,6.39.37.37,0,0,1,29.94,6.15Z" />
      </g>
    </g>
  </g>
</svg>