<svg xmlns="http://www.w3.org/2000/svg" width="50" height="50" viewBox="0 0 50 50">
  <defs>
    <style>
      .cls-1 {
        fill: #3178c6;
      }

      .cls-2 {
        fill: #fff;
        fill-rule: evenodd;
      }
    </style>
  </defs>
  <rect class="cls-1" width="50" height="50" rx="2.34" />
  <path class="cls-2"
    d="M29,38.85v5.48a11.54,11.54,0,0,0,3.15,1A20.52,20.52,0,0,0,36,45.7a17.94,17.94,0,0,0,3.73-.37,9.24,9.24,0,0,0,3.1-1.24,6.3,6.3,0,0,0,2.11-2.27,7.08,7.08,0,0,0,.77-3.44,7,7,0,0,0-.44-2.62,6.17,6.17,0,0,0-1.28-2,9.79,9.79,0,0,0-2-1.57,22.22,22.22,0,0,0-2.63-1.31c-.72-.29-1.36-.58-1.93-.86A9.41,9.41,0,0,1,36,29.17a3.87,3.87,0,0,1-.93-.92,2,2,0,0,1-.32-1.11,1.86,1.86,0,0,1,.29-1,2.37,2.37,0,0,1,.82-.78,4.2,4.2,0,0,1,1.3-.51,7.45,7.45,0,0,1,1.7-.18,12.48,12.48,0,0,1,1.45.1,12.12,12.12,0,0,1,1.52.32,9.93,9.93,0,0,1,1.5.54,9.1,9.1,0,0,1,1.34.75V21.25a13.7,13.7,0,0,0-2.72-.71,22.78,22.78,0,0,0-3.39-.23,15.68,15.68,0,0,0-3.69.42A9.41,9.41,0,0,0,31.77,22a6.61,6.61,0,0,0-2.1,2.27,6.71,6.71,0,0,0-.76,3.3,6.42,6.42,0,0,0,1.4,4.17,10.69,10.69,0,0,0,4.28,2.93c.75.31,1.45.61,2.1.91a11.74,11.74,0,0,1,1.68.92,4.37,4.37,0,0,1,1.12,1.05,2.13,2.13,0,0,1,.41,1.28,2,2,0,0,1-.26,1,2.29,2.29,0,0,1-.77.78,4.2,4.2,0,0,1-1.3.53,8.12,8.12,0,0,1-1.82.18A10.37,10.37,0,0,1,29,38.85Zm-9.2-13.63H27V20.7H7v4.52h7.11V45.31h5.67Z" />
</svg>